<?xml version="1.0" encoding="UTF-8" standalone="no"?>
<svg xmlns:rdf="http://www.w3.org/1999/02/22-rdf-syntax-ns#" xmlns="http://www.w3.org/2000/svg" height="32" width="16" version="1.1" xmlns:cc="http://creativecommons.org/ns#" xmlns:dc="http://purl.org/dc/elements/1.1/" viewBox="0 0 16 32">
 <defs>
  <linearGradient id="linearGradient4208" y2="6.3251" gradientUnits="userSpaceOnUse" x2="-17.866" gradientTransform="matrix(2.5627 0 0 2.4614 51.001 -10.352)" y1="15.087" x1="-9.45">
   <stop style="stop-color:#fff;stop-opacity:.12549" offset="0"/>
   <stop style="stop-color:#323232;stop-opacity:.25098" offset=".48688"/>
   <stop style="stop-opacity:.25098" offset="1"/>
  </linearGradient>
  <filter id="filter4161" style="color-interpolation-filters:sRGB" height="1.045" width="1.09" y="-0.0225" x="-.045001">
   <feGaussianBlur stdDeviation="0.29062254"/>
  </filter>
  <clipPath id="clipPath4165" clipPathUnits="userSpaceOnUse">
   <path style="fill-opacity:.18824;fill-rule:evenodd" d="m16 31a15 15 0 0 1 -12.99 -7.5 15 15 0 0 1 0 -15 15 15 0 0 1 12.99 -7.5v15z"/>
  </clipPath>
 </defs>
 <path d="m16 31a15 15 0 0 1 -12.99 -7.5 15 15 0 0 1 0 -15 15 15 0 0 1 12.99 -7.5v15z" style="fill-opacity:.18824;fill-rule:evenodd"/>
 <path d="m16.499 32a15.5 15.5 0 0 1 -13.423 -7.75 15.5 15.5 0 0 1 0 -15.5 15.5 15.5 0 0 1 13.423 -7.75" style="stroke-linejoin:round;filter:url(#filter4161);stroke:#000;stroke-opacity:.68627;fill:none" clip-path="url(#clipPath4165)"/>
 <path d="m16 31.5a15.5 15.5 0 0 1 -13.423 -7.75 15.5 15.5 0 0 1 0 -15.5 15.5 15.5 0 0 1 13.423 -7.75" style="stroke-linejoin:round;stroke:url(#linearGradient4208);fill:none"/>
</svg>
