<?xml version="1.0" encoding="UTF-8" standalone="no"?>
<svg xmlns:rdf="http://www.w3.org/1999/02/22-rdf-syntax-ns#" xmlns="http://www.w3.org/2000/svg" height="16" width="16" version="1.1" xmlns:cc="http://creativecommons.org/ns#" xmlns:xlink="http://www.w3.org/1999/xlink" viewBox="0 0 16 16" xmlns:dc="http://purl.org/dc/elements/1.1/">
 <defs>
  <filter id="filter4182" style="color-interpolation-filters:sRGB" height="1.0943" width="1.044" y="-.047143" x="-.022">
   <feGaussianBlur stdDeviation="0.1375"/>
  </filter>
  <clipPath id="clipPath4192" clipPathUnits="userSpaceOnUse">
   <path style="fill-opacity:.18824;fill-rule:evenodd" d="m4 1c-1.6628 0-3 1.3372-3 3s1.3372 3 3 3h8c1.663 0 3-1.3372 3-3s-1.337-3-3-3h-8z"/>
  </clipPath>
  <linearGradient id="linearGradient4202" y2=".5" gradientUnits="userSpaceOnUse" x2="6.3178" gradientTransform="translate(0,4)" y1="7.5" x1="9.6822">
   <stop style="stop-color:#fff;stop-opacity:.12549" offset="0"/>
   <stop style="stop-color:#323232;stop-opacity:.25098" offset=".5"/>
   <stop style="stop-opacity:.25098" offset="1"/>
  </linearGradient>
 </defs>
 <g transform="matrix(0,1,1,0,0,0)">
  <path d="m4 11.5c-1.933 0-3.5-1.567-3.5-3.5s1.567-3.5 3.5-3.5h8c1.933 0 3.5 1.567 3.5 3.5s-1.567 3.5-3.5 3.5z" style="stroke-linejoin:round;stroke-opacity:.68627;stroke:url(#linearGradient4202);stroke-linecap:round;fill:none"/>
  <path d="m4 5c-1.6628 0-3 1.3372-3 3s1.3372 3 3 3h8c1.663 0 3-1.3372 3-3s-1.337-3-3-3h-8z" style="fill-opacity:.18824;fill-rule:evenodd"/>
  <path style="stroke-linejoin:round;stroke-opacity:.68627;filter:url(#filter4182);stroke:#000;stroke-linecap:round;fill:none" d="m4.5 8c-1.933 0-3.5-1.567-3.5-3.5s1.567-3.5 3.5-3.5h8c1.933 0 3.5 1.567 3.5 3.5s-1.567 3.5-3.5 3.5z" clip-path="url(#clipPath4192)" transform="translate(0,4)"/>
 </g>
</svg>
