<?xml version="1.0" encoding="UTF-8" standalone="no"?>
<!-- Created with Inkscape (http://www.inkscape.org/) -->

<svg
   xmlns:dc="http://purl.org/dc/elements/1.1/"
   xmlns:cc="http://creativecommons.org/ns#"
   xmlns:rdf="http://www.w3.org/1999/02/22-rdf-syntax-ns#"
   xmlns:svg="http://www.w3.org/2000/svg"
   xmlns="http://www.w3.org/2000/svg"
   xmlns:xlink="http://www.w3.org/1999/xlink"
   xmlns:sodipodi="http://sodipodi.sourceforge.net/DTD/sodipodi-0.dtd"
   xmlns:inkscape="http://www.inkscape.org/namespaces/inkscape"
   width="19"
   height="19"
   id="svg4875"
   version="1.1"
   inkscape:version="0.91 r13725"
   viewBox="0 0 19 19"
   sodipodi:docname="menu.svg">
  <defs
     id="defs4877">
    <linearGradient
       inkscape:collect="always"
       xlink:href="#linearGradient4509"
       id="linearGradient4515"
       x1="2.0000153"
       y1="1062.8622"
       x2="16.999975"
       y2="1062.8622"
       gradientUnits="userSpaceOnUse"
       gradientTransform="translate(-1072.3622,-1053.3622)" />
    <linearGradient
       id="linearGradient4509">
      <stop
         id="stop4803"
         offset="0"
         style="stop-color:#60c1e6;stop-opacity:1;" />
      <stop
         id="stop4807"
         offset="1"
         style="stop-color:#ecfafe;stop-opacity:1;" />
    </linearGradient>
    <linearGradient
       inkscape:collect="always"
       id="linearGradient4521">
      <stop
         style="stop-color:#ffffff;stop-opacity:1;"
         offset="0"
         id="stop4523" />
      <stop
         style="stop-color:#ffffff;stop-opacity:0;"
         offset="1"
         id="stop4525" />
    </linearGradient>
    <linearGradient
       inkscape:collect="always"
       xlink:href="#linearGradient4521"
       id="linearGradient7588"
       gradientUnits="userSpaceOnUse"
       gradientTransform="matrix(0,1,1,0,0,2125.7244)"
       x1="-1070.3622"
       y1="9.4999952"
       x2="-1055.3622"
       y2="9.4999952" />
    <linearGradient
       inkscape:collect="always"
       xlink:href="#linearGradient4521"
       id="linearGradient7594"
       gradientUnits="userSpaceOnUse"
       gradientTransform="matrix(0,1.0357118,1.0357118,0,-0.33926172,2163.6811)"
       x1="-1070.3622"
       y1="9.4999952"
       x2="-1055.3622"
       y2="9.4999952" />
  </defs>
  <sodipodi:namedview
     id="base"
     pagecolor="#ffffff"
     bordercolor="#666666"
     borderopacity="1.0"
     inkscape:pageopacity="0.0"
     inkscape:pageshadow="2"
     inkscape:zoom="48.368421"
     inkscape:cx="3.1115343"
     inkscape:cy="9.5"
     inkscape:document-units="px"
     inkscape:current-layer="layer1"
     showgrid="false"
     fit-margin-top="0"
     fit-margin-left="0"
     fit-margin-right="0"
     fit-margin-bottom="0"
     inkscape:window-width="2493"
     inkscape:window-height="1416"
     inkscape:window-x="1147"
     inkscape:window-y="229"
     inkscape:window-maximized="1" />
  <metadata
     id="metadata4880">
    <rdf:RDF>
      <cc:Work
         rdf:about="">
        <dc:format>image/svg+xml</dc:format>
        <dc:type
           rdf:resource="http://purl.org/dc/dcmitype/StillImage" />
        <dc:title></dc:title>
      </cc:Work>
    </rdf:RDF>
  </metadata>
  <g
     inkscape:label="Layer 1"
     inkscape:groupmode="layer"
     id="layer1"
     transform="translate(287.35715,-522.86219)">
    <g
       id="g4541"
       inkscape:export-filename="close.png"
       inkscape:export-xdpi="90"
       inkscape:export-ydpi="90"
       transform="translate(-287.35715,-530.49999)">
      <path
         style="color:#000000;display:inline;overflow:visible;visibility:visible;fill:#383734;fill-opacity:1;fill-rule:nonzero;stroke:none;stroke-width:8;marker:none;enable-background:accumulate"
         d="m 17.999992,1062.8622 a 8.5,8.5 0 0 1 -8.4999996,8.5 8.5,8.5 0 0 1 -8.50000003,-8.5 8.5,8.5 0 0 1 8.50000003,-8.5 8.5,8.5 0 0 1 8.4999996,8.5 z"
         id="path4505" />
      <path
         transform="matrix(0,-1,1,0,0,0)"
         style="color:#000000;display:inline;overflow:visible;visibility:visible;fill:url(#linearGradient4515);fill-opacity:1;fill-rule:nonzero;stroke:none;stroke-width:8;marker:none;enable-background:accumulate"
         d="m -1055.3622,9.4999952 a 7.49998,7.49998 0 0 1 -7.5,7.4999798 7.49998,7.49998 0 0 1 -7.5,-7.4999798 7.49998,7.49998 0 0 1 7.5,-7.4999799 7.49998,7.49998 0 0 1 7.5,7.4999799 z"
         id="circle4507" />
      <path
         style="font-style:normal;font-variant:normal;font-weight:normal;font-stretch:normal;text-indent:0;text-align:start;text-decoration:none;line-height:normal;letter-spacing:normal;word-spacing:normal;text-transform:none;direction:ltr;block-progression:tb;writing-mode:lr-tb;text-anchor:start;baseline-shift:baseline;opacity:0.07000002;color:#000000;color-interpolation:sRGB;color-interpolation-filters:linearRGB;fill:url(#linearGradient7588);fill-opacity:1;stroke:none;stroke-width:1;marker:none;visibility:visible;display:inline;overflow:visible;isolation:auto;mix-blend-mode:normal;enable-background:accumulate;clip-rule:nonzero;color-rendering:auto;image-rendering:auto;shape-rendering:auto;text-rendering:auto;font-family:sans-serif;-inkscape-font-specification:sans-serif"
         d="m 2,1062.8613 c 0,-4.1362 3.363788,-7.5 7.5,-7.5 4.136212,0 7.5,3.3638 7.5,7.5 0,4.1362 -3.363788,7.5 -7.5,7.5 -4.136212,0 -7.5,-3.3638 -7.5,-7.5 z m 1,0 c 0,3.5958 2.9042281,6.5 6.5,6.5 3.595772,0 6.5,-2.9042 6.5,-6.5 0,-3.5957 -2.904228,-6.5 -6.5,-6.5 -3.5957719,0 -6.5,2.9043 -6.5,6.5 z"
         id="circle4519"
         inkscape:connector-curvature="0" />
      <path
         style="font-style:normal;font-variant:normal;font-weight:normal;font-stretch:normal;text-indent:0;text-align:start;text-decoration:none;line-height:normal;letter-spacing:normal;word-spacing:normal;text-transform:none;direction:ltr;block-progression:tb;writing-mode:lr-tb;text-anchor:start;baseline-shift:baseline;opacity:0.07000002;color:#000000;color-interpolation:sRGB;color-interpolation-filters:linearRGB;fill:url(#linearGradient7594);fill-opacity:1;stroke:none;stroke-width:0.5;marker:none;visibility:visible;display:inline;overflow:visible;isolation:auto;mix-blend-mode:normal;enable-background:accumulate;clip-rule:nonzero;color-rendering:auto;image-rendering:auto;shape-rendering:auto;text-rendering:auto;font-family:sans-serif;-inkscape-font-specification:sans-serif"
         d="m 2,1062.8613 c 0,-4.1391 3.3608366,-7.5 7.5,-7.5 4.139163,0 7.5,3.3609 7.5,7.5 0,4.1392 -3.360837,7.5 -7.5,7.5 -4.1391634,0 -7.5,-3.3608 -7.5,-7.5 z m 0.5,0 c 0,3.869 3.1310567,7 7,7 3.868943,0 7,-3.131 7,-7 0,-3.8689 -3.131057,-7 -7,-7 -3.8689433,0 -7,3.1311 -7,7 z"
         id="circle4531"
         inkscape:connector-curvature="0" />
      <path
         style="color:#000000;display:inline;overflow:visible;visibility:visible;fill:none;stroke:none;stroke-width:1;marker:none;enable-background:accumulate"
         d="m -7.3563765e-6,1053.3622 19.0000003563765,0 0,19 -19.0000003563765,0 z"
         id="rect4539" />
    </g>
    <path
       style="fill:#af64ff;stroke:none;stroke-width:1px;stroke-linecap:butt;stroke-linejoin:miter;stroke-opacity:1;fill-opacity:1"
       d="m -278.42895,540.85125 c -1.29381,-0.0963 -2.50746,-0.46128 -3.62722,-1.09068 -0.24386,-0.13707 -0.77643,-0.49319 -1.01306,-0.67742 -1.6209,-1.26193 -2.73616,-3.06634 -3.13049,-5.06492 -0.42821,-2.17024 -0.002,-4.40873 1.19368,-6.26442 0.62313,-0.96738 1.48949,-1.84356 2.45368,-2.4815 1.13737,-0.75252 2.37835,-1.20341 3.76278,-1.36712 0.4349,-0.0514 1.42582,-0.0514 1.86072,0 1.57182,0.18587 2.97645,0.74711 4.21589,1.6845 0.57399,0.43411 1.19415,1.05474 1.63304,1.63428 0.92884,1.2265 1.49468,2.64463 1.67978,4.20993 0.0519,0.43888 0.0517,1.42808 -3.5e-4,1.86072 -0.14068,1.16898 -0.48172,2.23588 -1.0234,3.20159 -1.34735,2.40207 -3.73922,4.0002 -6.45751,4.31461 -0.40935,0.0473 -1.18312,0.0676 -1.54754,0.0404 l 0,0 z"
       id="path4254" />
  </g>
</svg>
