<?xml version="1.0" encoding="UTF-8" standalone="no"?>
<svg xmlns:rdf="http://www.w3.org/1999/02/22-rdf-syntax-ns#" xmlns="http://www.w3.org/2000/svg" height="28" width="96" version="1.1" xmlns:cc="http://creativecommons.org/ns#" xmlns:dc="http://purl.org/dc/elements/1.1/" viewBox="0 0 96 28">
 <defs>
  <linearGradient id="linearGradient4277" y2="1.5" gradientUnits="userSpaceOnUse" x2="12.746" gradientTransform="matrix(1.6818 0 0 1.6153 -5.9093 1.0778)" y1="14" x1="19.003">
   <stop style="stop-color:#fff;stop-opacity:.12549" offset="0"/>
   <stop style="stop-color:#323232;stop-opacity:.25098" offset=".48688"/>
   <stop style="stop-opacity:.25098" offset="1"/>
  </linearGradient>
  <filter id="filter4528" style="color-interpolation-filters:sRGB" height="1.1753" width="1.0912" y="-.087626" x="-.045618">
   <feGaussianBlur stdDeviation="0.47466825"/>
  </filter>
  <clipPath id="clipPath4177" clipPathUnits="userSpaceOnUse">
   <path style="color-rendering:auto;fill-rule:evenodd;color:#000000;isolation:auto;mix-blend-mode:normal;text-decoration-color:#000000;shape-rendering:auto;solid-color:#000000;block-progression:tb;text-decoration-line:none;image-rendering:auto;white-space:normal;text-indent:0;text-transform:none;text-decoration-style:solid;fill-opacity:.18824" d="m10.086 2c-3.3408-0.0386-6.0697 2.659-6.0697 6s2.7289 6.0386 6.0697 6h15.694c3.3408 0.03857 6.0697-2.659 6.0697-6s-2.7289-6.0386-6.0697-6z"/>
  </clipPath>
 </defs>
 <g transform="translate(23.75 -.00019762)">
  <path style="color-rendering:auto;fill-rule:evenodd;color:#000000;isolation:auto;mix-blend-mode:normal;text-decoration-color:#000000;shape-rendering:auto;solid-color:#000000;block-progression:tb;text-decoration-line:none;image-rendering:auto;white-space:normal;text-indent:0;text-transform:none;text-decoration-style:solid;fill-opacity:.18824" d="m11.053 4.3084c-5.6183-0.0623-10.208 4.2951-10.208 9.6916 0 5.3967 4.5894 9.7541 10.208 9.6918h26.393c5.6186 0.06231 10.208-4.2951 10.208-9.6918s-4.5894-9.7541-10.208-9.6918z"/>
  <path style="color-rendering:auto;text-decoration-color:#000000;color:#000000;isolation:auto;mix-blend-mode:normal;fill-rule:evenodd;shape-rendering:auto;solid-color:#000000;block-progression:tb;text-decoration-line:none;image-rendering:auto;white-space:normal;text-indent:0;text-transform:none;text-decoration-style:solid;fill:url(#linearGradient4277)" d="m11.053 3.5008c-6.0734-0.0647-11.053 4.6649-11.053 10.499-4e-8 5.835 4.9796 10.564 11.053 10.5h26.393c6.074 0.064 11.054-4.665 11.054-10.5 0-5.8347-4.98-10.564-11.053-10.499h-26.383-0.0099zm0 0.80765h26.393c5.6186-0.062312 10.208 4.2951 10.208 9.6918s-4.5894 9.7541-10.208 9.6918h-26.393c-5.6183 0.062-10.208-4.295-10.208-9.692 0-5.3967 4.5894-9.7541 10.208-9.6918z"/>
  <path style="solid-color:#000000;color-rendering:auto;text-decoration-color:#000000;color:#000000;isolation:auto;mix-blend-mode:normal;fill-rule:evenodd;shape-rendering:auto;filter:url(#filter4528);block-progression:tb;text-decoration-line:none;image-rendering:auto;white-space:normal;text-indent:0;text-transform:none;text-decoration-style:solid;fill-opacity:.75294" d="m10.236 1.8868c-3.6113-0.039846-6.5723 2.8877-6.5723 6.5s2.9609 6.5398 6.5723 6.5h15.541c3.6113 0.03985 6.5723-2.8877 6.5723-6.5s-2.961-6.5398-6.5723-6.5h-15.535-0.0059zm0 0.5h15.541c3.3408-0.038577 6.0697 2.659 6.0697 6s-2.7289 6.0386-6.0697 6h-15.541c-3.3408 0.03858-6.0697-2.659-6.0697-6s2.7289-6.0386 6.0697-6z" clip-path="url(#clipPath4177)" transform="matrix(1.6818 0 0 1.6153 -5.9093 1.0778)"/>
 </g>
</svg>
