<?xml version="1.0" encoding="UTF-8" standalone="no"?>
<svg xmlns:rdf="http://www.w3.org/1999/02/22-rdf-syntax-ns#" xmlns="http://www.w3.org/2000/svg" height="28" width="96" version="1.1" xmlns:cc="http://creativecommons.org/ns#" xmlns:dc="http://purl.org/dc/elements/1.1/" viewBox="0 0 96 28">
 <defs>
  <linearGradient id="linearGradient4277" y2="1.5" gradientUnits="userSpaceOnUse" x2="12.746" gradientTransform="matrix(1.6818 0 0 1.6153 17.841 1.0776)" y1="14" x1="19.003">
   <stop style="stop-color:#fff;stop-opacity:.12549" offset="0"/>
   <stop style="stop-color:#323232;stop-opacity:.25098" offset=".48688"/>
   <stop style="stop-opacity:.25098" offset="1"/>
  </linearGradient>
  <filter id="filter4348" style="color-interpolation-filters:sRGB" height="1.1024" width="1.0424" y="-.051222" x="-.021212">
   <feGaussianBlur stdDeviation="0.41370454"/>
  </filter>
 </defs>
 <path style="color-rendering:auto;fill-rule:evenodd;color:#000000;isolation:auto;mix-blend-mode:normal;text-decoration-color:#000000;shape-rendering:auto;solid-color:#000000;block-progression:tb;text-decoration-line:none;image-rendering:auto;white-space:normal;text-indent:0;text-transform:none;text-decoration-style:solid;fill:#a2a2a2" d="m34.803 4.3082c-5.6183-0.0623-10.208 4.2951-10.208 9.6916 0 5.3967 4.5894 9.7541 10.208 9.6918h26.393c5.6186 0.06231 10.208-4.2951 10.208-9.6918s-4.5894-9.7541-10.208-9.6918z"/>
 <path style="color-rendering:auto;text-decoration-color:#000000;color:#000000;isolation:auto;mix-blend-mode:normal;fill-rule:evenodd;shape-rendering:auto;solid-color:#000000;block-progression:tb;text-decoration-line:none;image-rendering:auto;white-space:normal;text-indent:0;text-transform:none;text-decoration-style:solid;fill:url(#linearGradient4277)" d="m34.803 3.5006c-6.0734-0.0647-11.053 4.6649-11.053 10.499 0 5.835 4.9796 10.564 11.053 10.5h26.393c6.074 0.064 11.054-4.665 11.054-10.5 0-5.8347-4.98-10.564-11.053-10.499h-26.393zm0 0.80765h26.393c5.6186-0.062312 10.208 4.2951 10.208 9.6918s-4.5894 9.7541-10.208 9.6918h-26.393c-5.6183 0.062-10.208-4.295-10.208-9.692 0-5.3967 4.5894-9.7541 10.208-9.6918z"/>
 <path style="color-rendering:auto;text-decoration-color:#000000;color:#000000;shape-rendering:auto;solid-color:#000000;text-decoration-line:none;fill-rule:evenodd;mix-blend-mode:normal;fill-opacity:.99608;block-progression:tb;text-indent:0;image-rendering:auto;white-space:normal;text-decoration-style:solid;isolation:auto;filter:url(#filter4348);text-transform:none" d="m34.803 4.3086c-5.619-0.0623-10.207 4.2949-10.207 9.6914 0 5.397 4.588 9.754 10.207 9.691h26.392c5.619 0.063 10.209-4.294 10.209-9.691 0-5.3967-4.59-9.7537-10.209-9.6914h-26.392zm0.244 0.75h0.004 0.002 26.396 0.002c5.357-0.0594 9.703 4.0782 9.703 9.1914 0 5.113-4.346 9.251-9.703 9.191h-0.002-26.398-0.004c-5.357 0.06-9.701-4.078-9.701-9.191s4.344-9.2508 9.701-9.1914z"/>
</svg>
