<?xml version="1.0" encoding="UTF-8" standalone="no"?>
<svg
   xmlns:dc="http://purl.org/dc/elements/1.1/"
   xmlns:cc="http://creativecommons.org/ns#"
   xmlns:rdf="http://www.w3.org/1999/02/22-rdf-syntax-ns#"
   xmlns:svg="http://www.w3.org/2000/svg"
   xmlns="http://www.w3.org/2000/svg"
   xmlns:sodipodi="http://sodipodi.sourceforge.net/DTD/sodipodi-0.dtd"
   xmlns:inkscape="http://www.inkscape.org/namespaces/inkscape"
   height="8"
   width="16"
   version="1.1"
   viewBox="0 0 16 8"
   id="svg23"
   sodipodi:docname="Trough-Horizontal.svg"
   inkscape:version="0.92.3 (2405546, 2018-03-11)">
  <metadata
     id="metadata27">
    <rdf:RDF>
      <cc:Work
         rdf:about="">
        <dc:format>image/svg+xml</dc:format>
        <dc:type
           rdf:resource="http://purl.org/dc/dcmitype/StillImage" />
        <dc:title></dc:title>
      </cc:Work>
    </rdf:RDF>
  </metadata>
  <sodipodi:namedview
     pagecolor="#ffffff"
     bordercolor="#666666"
     borderopacity="1"
     objecttolerance="10"
     gridtolerance="10"
     guidetolerance="10"
     inkscape:pageopacity="0"
     inkscape:pageshadow="2"
     inkscape:window-width="2489"
     inkscape:window-height="1377"
     id="namedview25"
     showgrid="false"
     inkscape:measure-start="8,4"
     inkscape:measure-end="8,12"
     inkscape:snap-midpoints="true"
     inkscape:snap-bbox="true"
     inkscape:snap-bbox-edge-midpoints="true"
     inkscape:zoom="29.40625"
     inkscape:cx="10.134468"
     inkscape:cy="-4.8215753"
     inkscape:window-x="1147"
     inkscape:window-y="507"
     inkscape:window-maximized="1"
     inkscape:current-layer="svg23" />
  <defs
     id="defs15">
    <filter
       id="filter4182"
       style="color-interpolation-filters:sRGB"
       height="1.0943"
       width="1.044"
       y="-0.047143001"
       x="-0.022">
      <feGaussianBlur
         stdDeviation="0.1375"
         id="feGaussianBlur2" />
    </filter>
    <clipPath
       id="clipPath4192"
       clipPathUnits="userSpaceOnUse">
      <path
         style="fill-opacity:0.18824002;fill-rule:evenodd"
         d="M 4,1 C 2.3372,1 1,2.3372 1,4 1,5.6628 2.3372,7 4,7 h 8 C 13.663,7 15,5.6628 15,4 15,2.3372 13.663,1 12,1 Z"
         id="path5"
         inkscape:connector-curvature="0" />
    </clipPath>
    <linearGradient
       id="linearGradient4202"
       y2="0.5"
       gradientUnits="userSpaceOnUse"
       x2="6.3178"
       y1="7.5"
       x1="9.6822004">
      <stop
         style="stop-color:#fff;stop-opacity:.12549"
         offset="0"
         id="stop8" />
      <stop
         style="stop-color:#323232;stop-opacity:.25098"
         offset=".5"
         id="stop10" />
      <stop
         style="stop-opacity:.25098"
         offset="1"
         id="stop12" />
    </linearGradient>
  </defs>
  <path
     style="fill:none;stroke:url(#linearGradient4202);stroke-linecap:round;stroke-linejoin:round;stroke-opacity:0.68627002"
     d="M 4,7.5 C 2.067,7.5 0.5,5.933 0.5,4 0.5,2.067 2.067,0.5 4,0.5 h 8 c 1.933,0 3.5,1.567 3.5,3.5 0,1.933 -1.567,3.5 -3.5,3.5 z"
     id="path17"
     inkscape:connector-curvature="0" />
  <path
     style="fill-opacity:0.18824002;fill-rule:evenodd"
     d="M 4,1 C 2.3372,1 1,2.3372 1,4 1,5.6628 2.3372,7 4,7 h 8 C 13.663,7 15,5.6628 15,4 15,2.3372 13.663,1 12,1 Z"
     id="path19"
     inkscape:connector-curvature="0" />
</svg>
