<?xml version="1.0" encoding="UTF-8" standalone="no"?>
<svg xmlns:rdf="http://www.w3.org/1999/02/22-rdf-syntax-ns#" xmlns="http://www.w3.org/2000/svg" height="32" width="32" version="1.1" xmlns:cc="http://creativecommons.org/ns#" xmlns:dc="http://purl.org/dc/elements/1.1/" viewBox="0 0 32 32">
 <defs>
  <linearGradient id="linearGradient4177" y2="-4.4783" gradientUnits="userSpaceOnUse" x2="-34.328" gradientTransform="matrix(2.5627,0,0,2.4614,87.972,11.023)" y1="8.5224" x1="-21.841">
   <stop style="stop-color:#fff;stop-opacity:.12549" offset="0"/>
   <stop style="stop-color:#c0c0c0;stop-opacity:.12549" offset=".48895"/>
   <stop style="stop-color:#404040;stop-opacity:.25098" offset=".51105"/>
   <stop style="stop-opacity:.25098" offset="1"/>
  </linearGradient>
  <filter id="filter4172" style="color-interpolation-filters:sRGB" height="1.06" width="1.06" y="-.03" x="-.03">
   <feGaussianBlur stdDeviation="0.3875"/>
  </filter>
  <clipPath id="clipPath4178" clipPathUnits="userSpaceOnUse">
   <path style="fill-opacity:.18824" d="m5.5 1c-2.5016 0-4.5 1.9984-4.5 4.5v21c0 2.502 1.9984 4.5 4.5 4.5h21c2.5016 0 4.5-1.9984 4.5-4.5v-21c0-2.5016-1.998-4.5-4.5-4.5h-21z"/>
  </clipPath>
 </defs>
 <path style="fill-opacity:.18824" d="m5.5 1c-2.5016 0-4.5 1.9984-4.5 4.5v21c0 2.502 1.9984 4.5 4.5 4.5h21c2.5016 0 4.5-1.9984 4.5-4.5v-21c0-2.5016-1.998-4.5-4.5-4.5h-21z"/>
 <rect style="stroke-linejoin:round;stroke:url(#linearGradient4177);stroke-linecap:round;fill:none" rx="5" ry="5" height="31" width="31" y=".5" x=".5"/>
 <rect style="stroke-linejoin:round;filter:url(#filter4172);stroke:#000;stroke-linecap:round;fill:none" clip-path="url(#clipPath4178)" rx="5" ry="5" height="31" width="31" y="1" x="1"/>
</svg>
